<svg width="173" height="57" viewBox="0 0 173 57" fill="none" xmlns="http://www.w3.org/2000/svg">
<path d="M143.309 41.4405H145.623L154.256 19.3494V41.4405H156.659V16.4099H152.743L144.466 37.8774L136.189 16.4099H132.273V41.4405H134.676V19.3494L143.309 41.4405Z" fill="#294E47"/>
<path d="M115.451 39.3863C110.912 39.3863 106.195 36.6249 106.195 28.9642C106.195 21.4818 110.912 18.5422 115.451 18.5422C119.99 18.5422 124.707 21.2145 124.707 28.9642C124.618 35.645 121.236 39.3863 115.451 39.3863ZM115.451 15.959C112.158 15.959 109.221 17.117 107.174 19.2548C104.86 21.5708 103.703 24.9558 103.703 28.9642C103.703 36.8921 108.331 41.9695 115.451 41.9695C121.147 41.9695 127.199 38.5846 127.199 28.9642C127.199 20.9473 122.571 15.959 115.451 15.959Z" fill="#294E47"/>
<path d="M85.1902 24.8722V16.4099H82.7871V41.4405H85.1902V27.3663H92.2212L99.2522 41.4405H102.1L94.8912 27.0991L100.587 16.4099H97.8282L93.2892 24.9613L85.1902 24.8722Z" fill="#294E47"/>
<path d="M74.4919 31.6174C73.5129 36.1603 70.3089 38.6545 65.5919 38.6545C61.0529 38.6545 56.3358 35.8931 56.3358 28.2325C56.3358 20.75 61.0529 17.8104 65.5919 17.8104C69.2409 17.8104 72.9789 19.592 74.3139 24.3131H76.8949C75.5599 18.7012 71.4659 15.3163 65.5919 15.3163C62.2989 15.3163 59.3619 16.4743 57.3148 18.6121C55.0008 20.9281 53.8438 24.3131 53.8438 28.3215C53.8438 36.2494 58.4718 41.3268 65.5919 41.3268C70.5759 41.3268 75.8269 38.7436 77.0729 31.7065H74.4919V31.6174Z" fill="#294E47"/>
<path d="M26.4331 40.794H28.8361V15.8524H15.7531C15.6641 20.2172 14.2401 26.7198 13.3501 32.4208C12.3711 38.0326 11.8371 38.2999 8.45504 38.2999C8.45504 38.7452 8.45504 40.7049 8.45504 40.7049C13.3501 40.7049 14.1511 40.7049 15.4861 33.9351C16.3761 29.214 17.8891 22.355 18.0671 18.1684H26.5221V40.794H26.4331Z" fill="#294E47"/>
<path d="M37.2012 18.1722H51.5303V15.7671H34.7982C34.7982 24.1403 34.7982 32.4245 34.7982 40.7978H51.5303V38.3036H37.2012V26.6345H49.3053V24.2294H37.2012V18.1722Z" fill="#294E47"/>
<path fill-rule="evenodd" clip-rule="evenodd" d="M13.35 10.8674V0H10.858V10.8674H13.35Z" fill="#294E47"/>
<path fill-rule="evenodd" clip-rule="evenodd" d="M10.8581 10.8688H0V13.363H10.8581V10.8688Z" fill="#294E47"/>
<path fill-rule="evenodd" clip-rule="evenodd" d="M159.59 45.3814V56.2488H161.993V45.3814H159.59Z" fill="#294E47"/>
<path fill-rule="evenodd" clip-rule="evenodd" d="M161.991 45.3839H172.849V42.8897H161.991V45.3839Z" fill="#294E47"/>
</svg>
