<svg width="131" height="96" viewBox="0 0 131 96" fill="none" xmlns="http://www.w3.org/2000/svg">
<path d="M97.6991 78.3597H100.299L109.999 53.6365V78.3597H112.699V50.3467H108.299L98.9991 74.3721L89.6992 50.3467H85.2993V78.3597H87.9993V53.6365L97.6991 78.3597Z" fill="#294E47"/>
<path d="M66.3987 76.0604C61.2988 76.0604 55.9989 72.97 55.9989 64.3966C55.9989 56.0226 61.2988 52.7328 66.3987 52.7328C71.4987 52.7328 76.7986 55.7235 76.7986 64.3966C76.6986 71.8734 72.8986 76.0604 66.3987 76.0604ZM66.3987 49.8418C62.6988 49.8418 59.3989 51.1378 57.0989 53.5303C54.499 56.1223 53.199 59.9105 53.199 64.3966C53.199 73.2691 58.3989 78.9514 66.3987 78.9514C72.7986 78.9514 79.5985 75.1632 79.5985 64.3966C79.5985 55.4245 74.3986 49.8418 66.3987 49.8418Z" fill="#294E47"/>
<path d="M32.3981 59.8173V50.3467H29.6981V78.3597H32.3981V62.6086H40.2979L48.1978 78.3597H51.3978L43.2979 62.3096L49.6978 50.3467H46.5978L41.4979 59.917L32.3981 59.8173Z" fill="#294E47"/>
<path d="M83.6969 35.385C82.5969 40.4692 78.997 43.2605 73.6971 43.2605C68.5972 43.2605 63.2973 40.1701 63.2973 31.5967C63.2973 23.2227 68.5972 19.9329 73.6971 19.9329C77.797 19.9329 81.9969 21.9267 83.4969 27.2104H86.3969C84.8969 20.9298 80.297 17.1416 73.6971 17.1416C69.9971 17.1416 66.6972 18.4376 64.3972 20.8302C61.7973 23.4221 60.4973 27.2104 60.4973 31.6964C60.4973 40.5689 65.6972 46.2513 73.6971 46.2513C79.297 46.2513 85.1969 43.3602 86.5969 35.4847H83.6969V35.385Z" fill="#294E47"/>
<path d="M29.6995 45.6546H32.3995V17.7412H17.6997C17.5997 22.626 15.9998 29.9035 14.9998 36.2837C13.8998 42.5642 13.2998 42.8632 9.49988 42.8632C9.49988 43.3617 9.49988 45.5549 9.49988 45.5549C14.9998 45.5549 15.8998 45.5549 17.3997 37.9784C18.3997 32.6948 20.0997 25.0186 20.2997 20.3332H29.7995V45.6546H29.6995Z" fill="#294E47"/>
<path d="M41.7987 20.3372H57.8984V17.6455H39.0988C39.0988 27.0164 39.0988 36.2876 39.0988 45.6586H57.8984V42.8672H41.7987V29.8078H55.3985V27.1161H41.7987V20.3372Z" fill="#294E47"/>
<path fill-rule="evenodd" clip-rule="evenodd" d="M14.9997 12.1623V0H12.1997V12.1623H14.9997Z" fill="#294E47"/>
<path fill-rule="evenodd" clip-rule="evenodd" d="M12.1998 12.1641H0V14.9554H12.1998V12.1641Z" fill="#294E47"/>
<path fill-rule="evenodd" clip-rule="evenodd" d="M27.001 83.8379V96.0001H24.201V83.8379H27.001Z" fill="#294E47"/>
<path fill-rule="evenodd" clip-rule="evenodd" d="M24.1994 83.8402H11.9996V81.0488H24.1994V83.8402Z" fill="#294E47"/>
<path fill-rule="evenodd" clip-rule="evenodd" d="M115.498 83.8379V96.0001H118.198V83.8379H115.498Z" fill="#294E47"/>
<path fill-rule="evenodd" clip-rule="evenodd" d="M118.197 83.8402H130.396V81.0488H118.197V83.8402Z" fill="#294E47"/>
</svg>
