<svg width="196" height="49" viewBox="0 0 196 49" fill="none" xmlns="http://www.w3.org/2000/svg">
<path d="M146.707 35.483H148.689L156.081 16.5677V35.483H158.138V14.0508H154.785L147.698 32.4322L140.611 14.0508H137.258V35.483H139.315V16.5677L146.707 35.483Z" fill="white"/>
<path d="M122.854 33.7241C118.968 33.7241 114.929 31.3597 114.929 24.8003C114.929 18.3935 118.968 15.8766 122.854 15.8766C126.741 15.8766 130.779 18.1647 130.779 24.8003C130.703 30.5207 127.807 33.7241 122.854 33.7241ZM122.854 13.6647C120.034 13.6647 117.52 14.6562 115.767 16.4868C113.786 18.4698 112.795 21.3681 112.795 24.8003C112.795 31.5885 116.758 35.936 122.854 35.936C127.731 35.936 132.913 33.0377 132.913 24.8003C132.913 17.9359 128.951 13.6647 122.854 13.6647Z" fill="white"/>
<path d="M96.9432 21.2966V14.0508H94.8857V35.483H96.9432V23.4322H102.963L108.984 35.483H111.422L105.25 23.2033L110.127 14.0508H107.764L103.878 21.3728L96.9432 21.2966Z" fill="white"/>
<path d="M87.783 27.0721C86.9447 30.9619 84.2013 33.0975 80.1624 33.0975C76.2759 33.0975 72.237 30.7331 72.237 24.1738C72.237 17.767 76.2759 15.25 80.1624 15.25C83.2868 15.25 86.4875 16.7754 87.6305 20.8178H89.8405C88.6974 16.0127 85.192 13.1144 80.1624 13.1144C77.3428 13.1144 74.828 14.1059 73.0753 15.9365C71.0939 17.9195 70.1032 20.8178 70.1032 24.25C70.1032 31.0382 74.0659 35.3857 80.1624 35.3857C84.4299 35.3857 88.926 33.1738 89.9929 27.1484H87.783V27.0721Z" fill="white"/>
<path d="M46.6331 34.9295H48.6907V13.5735H37.4884C37.4122 17.3108 36.1929 22.8786 35.4309 27.76C34.5926 32.5651 34.1354 32.7939 31.2395 32.7939C31.2395 33.1752 31.2395 34.8532 31.2395 34.8532C35.4309 34.8532 36.1167 34.8532 37.2598 29.0566C38.0219 25.0142 39.3173 19.1413 39.4698 15.5565H46.7093V34.9295H46.6331Z" fill="white"/>
<path d="M55.8532 15.5597H68.1223V13.5004H53.7956C53.7956 20.6699 53.7956 27.7632 53.7956 34.9327H68.1223V32.7971H55.8532V22.8055H66.2172V20.7462H55.8532V15.5597Z" fill="white"/>
<path fill-rule="evenodd" clip-rule="evenodd" d="M35.4308 9.30511V0H33.297V9.30511H35.4308Z" fill="white"/>
<path fill-rule="evenodd" clip-rule="evenodd" d="M33.2971 9.30633H24V11.4419H33.2971V9.30633Z" fill="white"/>
<path fill-rule="evenodd" clip-rule="evenodd" d="M160.647 38.8574V48.1625H162.705V38.8574H160.647Z" fill="white"/>
<path fill-rule="evenodd" clip-rule="evenodd" d="M162.703 38.8595H172V36.7239H162.703V38.8595Z" fill="white"/>
</svg>
