<svg width="433" height="438" viewBox="0 0 433 438" fill="none" xmlns="http://www.w3.org/2000/svg">
<path d="M254.049 12.0702C253.802 12.0702 253.561 12.1432 253.357 12.28C253.152 12.4168 252.992 12.6113 252.898 12.8388C252.804 13.0663 252.779 13.3167 252.827 13.5582C252.875 13.7998 252.994 14.0216 253.168 14.1957C253.342 14.3699 253.564 14.4885 253.806 14.5365C254.047 14.5846 254.298 14.5599 254.525 14.4657C254.753 14.3714 254.947 14.2118 255.084 14.0071C255.221 13.8023 255.294 13.5616 255.294 13.3153C255.295 13.1517 255.263 12.9897 255.2 12.8385C255.138 12.6873 255.046 12.5499 254.93 12.4342C254.814 12.3185 254.677 12.2268 254.526 12.1644C254.374 12.1019 254.212 12.0699 254.049 12.0702Z" fill="#171717"/>
<path d="M253.928 234.502L324.912 235.413C325.605 235.42 326.29 235.272 326.919 234.982C327.547 234.692 328.104 234.266 328.548 233.735L349.159 208.894C349.701 208.233 350.05 207.434 350.168 206.587C350.285 205.74 350.166 204.877 349.824 204.093C349.482 203.309 348.93 202.635 348.229 202.144C347.528 201.654 346.705 201.366 345.851 201.313L272.228 196.702L253.928 234.502ZM173.262 192.899C180.979 201.572 187.748 211.042 193.456 221.15C194.619 222.903 195.533 224.81 196.171 226.815C196.326 226.741 196.502 226.718 196.671 226.75C208.874 216.836 225.937 201.048 242.016 200.797C241.914 200.647 241.861 200.47 241.864 200.289C241.866 200.109 241.924 199.933 242.03 199.787C243.155 198.056 244.495 196.474 246.018 195.078L177.423 190.783C176.605 190.741 175.79 190.915 175.06 191.286C174.33 191.658 173.71 192.214 173.262 192.899Z" fill="#E9E8E6"/>
<path d="M126.337 160.351C117.225 150.519 92.8331 144.294 69.4585 152.627C70.2558 155.05 71.1181 157.451 72.0444 159.828C85.3268 151.352 111.244 155.082 126.337 160.351Z" fill="#D0ECE7"/>
<path d="M73.7841 138.204C73.3919 139.599 73.3227 137.464 73.9663 149.041C75.9613 148.505 77.9795 148.059 80.0147 147.704C76.8267 145.423 74.6049 142.036 73.7841 138.204ZM133.666 67.9999C132.403 66.4815 131.059 65.0329 129.638 63.6604C125.597 70.5639 117.913 72.7014 117.225 79.9092C117.299 80.1398 118.78 84.9197 119.05 86.1786C132.789 91.2375 135.451 111.671 124.337 120.159C121.269 122.454 117.558 123.729 113.726 123.804C115.984 125.476 115.943 128.268 115.156 130.978C114.633 133.102 113.672 135.094 112.335 136.827C110.997 138.559 109.313 139.993 107.389 141.038C105.436 142.025 103.207 142.327 101.06 141.896C98.914 141.466 96.9746 140.327 95.5532 138.663C95.9194 140.083 95.8934 141.576 95.4778 142.982C95.0622 144.389 94.2727 145.656 93.1934 146.65C103.863 146.622 114.328 149.57 123.412 155.163C123.057 151.66 122.72 148.172 122.363 144.669C122.573 146.809 140.312 136.368 141.74 134.925C146.617 129.802 149.804 123.306 150.87 116.315C153.767 98.8673 144.577 81.0829 133.666 67.9999ZM263.328 230.324C268.306 226.573 271.808 221.193 273.222 215.125C273.273 214.949 273.369 214.79 273.5 214.663C273.631 214.535 273.792 214.444 273.969 214.398C274.146 214.351 274.332 214.351 274.508 214.398C274.685 214.444 274.847 214.536 274.977 214.663C275.956 215.746 277.275 216.463 278.717 216.695C279.249 216.667 279.76 216.474 280.178 216.144C280.597 215.813 280.903 215.361 281.053 214.85C282.089 212.175 280.018 209.577 278.456 207.61C276.441 206.302 274.032 205.741 271.646 206.024C271.382 206.087 271.104 206.045 270.87 205.907C270.636 205.769 270.465 205.546 270.392 205.285C270.319 205.023 270.351 204.744 270.48 204.505C270.608 204.266 270.825 204.087 271.084 204.004C274.115 203.533 277.211 204.237 279.741 205.971C281.499 206.662 284.034 207.439 284.897 205.171C285.105 204.161 285.042 203.114 284.712 202.137C284.383 201.16 283.799 200.288 283.021 199.611C282.196 198.643 281.296 197.739 280.331 196.909C278.726 196.217 276.998 195.859 275.25 195.854C273.502 195.85 271.772 196.2 270.163 196.884C269.923 197.014 269.642 197.048 269.377 196.98C269.112 196.912 268.882 196.745 268.735 196.515C268.593 196.275 268.552 195.989 268.62 195.719C268.688 195.449 268.861 195.217 269.1 195.074C271.271 194.12 273.636 193.689 276.004 193.815C270.768 190.626 264.504 189.577 258.514 190.886C252.524 192.195 247.27 195.761 243.843 200.843C256.458 201.629 265.916 213.448 263.328 230.324Z" fill="#FFE5D8"/>
<path d="M262.26 375.298C257.578 375.298 256.094 381.213 255.294 384.819C254.625 387.893 254.074 390.988 253.64 394.104C259.871 390.683 265.785 386.717 271.315 382.25C269.308 379.186 265.93 375.298 262.26 375.298ZM165.726 393.272C164.978 392.063 163.941 391.058 162.709 390.348C162.034 390.032 161.296 389.873 160.55 389.882C159.805 389.891 159.071 390.069 158.404 390.401C155.726 391.896 153.569 394.175 152.224 396.931C148.911 403.615 147.013 410.911 146.649 418.361C155.633 419.032 164.654 419.039 173.638 418.382C173.201 415.451 172.614 412.544 171.878 409.673C170.455 404.058 169.108 398.089 165.726 393.272Z" fill="#0B3029"/>
<path d="M286.915 349.118C283.898 344.537 278.426 344.124 272.994 345.053C250.57 348.872 230.798 363.322 207.889 367.283C197.956 369.001 186.884 369.199 178.748 363.246C160.104 349.672 157.013 310.015 152.665 288.345C145.828 254.22 143.387 214.717 112.882 192.003C93.0161 177.218 66.6057 167.287 41.704 170.939C31.8355 172.397 21.9971 176.243 15.1875 183.531C-7.88041 208.203 0.334057 260.314 7.45742 289.945C15.3166 322.614 30.1562 355.113 54.0245 379.243C56.6289 374.323 61.0279 372.928 64.0867 374.012C67.0533 375.061 68.2205 378.063 69.2839 380.751C71.2225 385.692 72.8406 390.752 74.1282 395.9C82.3566 401.386 91.259 405.787 100.615 408.995C114.846 413.83 129.612 416.92 144.589 418.195C146.614 392.765 159.435 380.253 167.747 392.529C171.251 397.724 172.628 404.097 174.176 410.076C174.844 412.762 175.359 415.483 175.717 418.227C191.155 416.926 206.361 413.638 220.957 408.444C231.409 404.833 241.579 400.454 251.384 395.342C251.647 393.246 251.949 391.16 252.307 389.087C253.158 384.367 254.152 377.765 257.882 374.791C258.843 374.027 259.984 373.524 261.197 373.328C262.409 373.133 263.65 373.254 264.803 373.677C268.189 375.189 271.022 377.714 272.911 380.904C277.831 376.444 285.534 367.251 287.79 358.999C287.803 355.685 287.51 352.378 286.915 349.118Z" fill="#294E47"/>
<path d="M62.0923 375.753C60.6422 375.883 59.2601 376.427 58.1107 377.32C56.9614 378.213 56.0934 379.418 55.6102 380.791C60.5215 385.651 65.8319 390.09 71.4855 394.063C70.3149 389.73 68.9048 385.466 67.2618 381.289C66.3275 378.9 65.1741 375.79 62.0923 375.753Z" fill="#0B3029"/>
<path d="M139.295 90.8466C140.824 90.8466 142.063 89.6078 142.063 88.0797C142.063 86.5515 140.824 85.3127 139.295 85.3127C137.766 85.3127 136.527 86.5515 136.527 88.0797C136.527 89.6078 137.766 90.8466 139.295 90.8466Z" fill="#171717"/>
<path d="M131.764 74.4815C131.953 74.2812 132.059 74.0159 132.059 73.7402C132.059 73.4645 131.953 73.1993 131.764 72.9989C131.566 72.8042 131.3 72.695 131.022 72.695C130.744 72.695 130.478 72.8042 130.28 72.9989C128.147 75.4328 126.94 78.5398 126.871 81.7747C126.796 82.3153 126.863 82.8662 127.067 83.3726C127.143 83.5021 127.244 83.6149 127.365 83.7045C127.485 83.7941 127.623 83.8587 127.769 83.8943C127.915 83.93 128.066 83.936 128.214 83.9121C128.363 83.8882 128.505 83.8348 128.632 83.7551C128.759 83.6753 128.869 83.5709 128.955 83.4479C129.042 83.325 129.102 83.186 129.134 83.0392C129.165 82.8924 129.167 82.7408 129.139 82.5933C129.111 82.4458 129.053 82.3054 128.97 82.1805C128.922 79.3581 129.917 76.617 131.764 74.4815ZM128.995 82.5518C128.995 82.6947 128.982 82.6694 128.982 82.5241L128.995 82.5518ZM138.968 109.656C140.267 110.954 141.943 111.809 143.757 112.099C145.571 112.389 147.43 112.099 149.069 111.27C149.194 111.204 149.304 111.114 149.392 111.005C149.481 110.895 149.547 110.769 149.586 110.634C149.625 110.498 149.636 110.356 149.618 110.217C149.601 110.077 149.556 109.942 149.485 109.82C149.415 109.698 149.32 109.592 149.207 109.507C149.094 109.423 148.966 109.362 148.829 109.328C148.692 109.295 148.55 109.289 148.411 109.312C148.272 109.334 148.139 109.385 148.02 109.46C146.783 110.065 145.388 110.265 144.031 110.032C142.674 109.799 141.426 109.145 140.463 108.162C140.264 107.964 139.995 107.853 139.715 107.853C139.435 107.853 139.166 107.964 138.968 108.162C138.769 108.36 138.658 108.629 138.658 108.909C138.658 109.189 138.769 109.458 138.968 109.656Z" fill="#171717"/>
<path d="M399.428 271.547C397.894 271.482 242.246 264.189 238.86 264.03C242.668 261.084 246.267 257.877 249.63 254.431C250.726 254.477 396.704 261.302 398.891 261.349C399.169 261.349 399.436 261.238 399.633 261.041C399.83 260.845 399.94 260.578 399.94 260.299C399.94 260.021 399.83 259.754 399.633 259.558C399.436 259.361 399.169 259.25 398.891 259.25C397.541 259.186 252.518 252.457 251.547 252.404C257.109 246.255 261.019 240.781 262.793 233.1C263.999 233.1 271.923 227.05 274.811 217.23C275.874 218.128 277.189 218.678 278.576 218.805C279.384 218.756 280.171 218.52 280.872 218.115C281.574 217.71 282.173 217.148 282.62 216.473C283.067 215.798 283.352 215.028 283.45 214.224C283.549 213.42 283.46 212.605 283.189 211.841C286.588 212.287 289.995 212.68 293.41 213.019C289.738 216.555 286.034 220.066 282.299 223.552C279.251 223.368 276.195 223.133 273.152 222.861C271.814 222.743 271.814 224.841 273.152 224.959C275.501 225.169 277.863 225.339 280.225 225.498C279.189 226.455 278.163 227.437 277.127 228.397C276.13 229.319 277.611 230.795 278.61 229.877C280.119 228.494 281.588 227.085 283.071 225.694C288.502 226.022 293.936 226.179 299.367 226.218C298.658 226.979 297.925 227.726 297.228 228.487C296.306 229.485 297.791 230.965 298.712 229.969C299.865 228.71 301.046 227.477 302.227 226.245C305.272 226.245 308.321 226.202 311.373 226.114C311.652 226.114 311.919 226.003 312.116 225.807C312.312 225.61 312.423 225.343 312.423 225.065C312.423 224.787 312.312 224.52 312.116 224.323C311.919 224.126 311.652 224.016 311.373 224.016C308.997 224.08 306.624 224.108 304.236 224.119C307.418 220.814 310.663 217.57 313.969 214.389C315.756 214.454 324.075 214.585 324.075 214.585C324.109 214.81 324.23 215.012 324.411 215.149C324.593 215.286 324.82 215.348 325.046 215.321C325.299 215.315 325.546 215.234 325.752 215.087C325.959 214.94 326.117 214.733 326.204 214.495C326.292 214.257 326.306 213.998 326.244 213.752C326.182 213.506 326.048 213.285 325.858 213.116C324.953 212.134 323.3 212.475 322.105 212.461C320.112 212.434 318.116 212.369 316.123 212.316C318.867 209.703 321.648 207.137 324.467 204.619C325.477 203.713 324.005 202.245 322.986 203.137C319.653 206.114 316.381 209.153 313.17 212.252C312.896 212.238 308.679 212.192 298.146 211.329C299.853 209.665 301.586 208.011 303.277 206.333C303.461 206.134 303.561 205.871 303.556 205.6C303.551 205.328 303.441 205.07 303.249 204.878C303.057 204.686 302.798 204.576 302.527 204.571C302.255 204.566 301.992 204.666 301.793 204.85C299.683 206.948 297.517 209 295.378 211.094C295.147 211.069 290.391 210.739 282.299 209.637C282.133 209.33 281.957 209.028 281.77 208.733C282.575 208.872 283.402 208.8 284.169 208.523C284.937 208.246 285.62 207.773 286.149 207.153C286.679 206.532 287.038 205.784 287.191 204.982C287.344 204.181 287.285 203.353 287.021 202.581C286.003 198.119 278.024 190.414 267.874 188.707V185.897C275.445 186.247 390.736 191.661 390.854 191.661C391.132 191.661 391.399 191.55 391.596 191.354C391.793 191.157 391.903 190.89 391.903 190.612C391.903 190.334 391.793 190.067 391.596 189.87C391.399 189.673 391.132 189.563 390.854 189.563C388.819 189.471 274.647 184.126 267.874 183.81C267.874 175.666 267.874 161.024 267.861 157.443C278.186 157.838 380.893 160.132 382.259 160.106C382.534 160.098 382.797 159.985 382.992 159.79C383.187 159.595 383.3 159.333 383.308 159.057C385.557 131.619 392.644 36.7796 390.826 9.07572C390.821 8.79895 390.709 8.53485 390.513 8.33912C390.318 8.14339 390.053 8.03133 389.776 8.02659C387.781 7.94819 132.468 -0.0436303 131.497 0.00017946C131.221 0.00606231 130.957 0.118484 130.761 0.313973C130.566 0.509462 130.453 0.772907 130.448 1.04931C130.448 3.2029 130.367 23.5721 130.284 46.5123C126.579 40.8493 117.76 38.6243 112.752 43.2128C112.36 40.8525 111.254 38.669 109.583 36.9558C107.912 35.2426 105.757 34.082 103.406 33.6299C101.056 33.1779 98.6229 33.4562 96.4354 34.4274C94.2478 35.3986 92.4103 37.0161 91.1699 39.0624C88.5455 37.5047 85.5252 36.7421 82.4756 36.8673C81.6437 36.922 80.8426 37.2026 80.1584 37.6788C79.4743 38.155 78.9332 38.8087 78.5933 39.5696C60.3696 40.9785 43.6016 58.2994 45.6062 88.6988C46.8565 107.837 54.2082 111.466 57.3708 122.167C58.3173 125.454 58.5974 128.896 58.1945 132.292C57.7916 135.688 56.714 138.97 55.0248 141.944C54.1298 143.505 53.0179 145.301 53.6592 146.98C55.5046 151.769 70.4803 149.571 73.7998 138.206C74.6183 142.041 76.8394 145.432 80.0281 147.715C75.8933 148.451 71.8281 149.535 67.8759 150.955C67.6121 151.034 67.3887 151.211 67.2522 151.45C67.1156 151.689 67.0763 151.972 67.1424 152.239C68.0607 155.195 69.1427 158.098 70.3834 160.934C66.8779 163.457 64.0943 166.853 62.3097 170.785C62.6787 170.838 64.1551 171.034 64.5288 171.087C71.7098 156.544 89.4698 155.67 105.557 157.683C144.293 162.502 173.481 189.457 192.523 223.691C192.985 224.537 194.782 227.659 194.369 228.909C194.319 229.117 194.335 229.336 194.414 229.535C194.493 229.734 194.631 229.905 194.81 230.023C194.988 230.142 195.199 230.203 195.413 230.198C195.628 230.193 195.835 230.123 196.009 229.997C198.2 232.403 199.347 235.58 199.199 238.83C199.277 240.17 201.377 240.181 201.298 238.83C201.093 235.441 200.484 231.364 197.898 228.955C202.419 229.812 202.818 234.871 204.685 234.057C204.919 233.962 205.11 233.783 205.221 233.555C205.332 233.328 205.355 233.067 205.287 232.824C204.789 231.525 204.014 230.351 203.014 229.384C202.015 228.417 200.816 227.68 199.501 227.225C211.958 216.925 233.01 198.055 249.097 203.997C262.047 208.839 267.321 228.883 254.073 246.294C244.131 259.324 226.161 271.607 211.757 278.361C205.055 281.896 197.664 283.932 190.096 284.328C180.164 284.678 170.32 282.349 161.598 277.586C161.359 277.461 161.081 277.432 160.822 277.507C160.562 277.581 160.341 277.752 160.204 277.984C160.067 278.217 160.025 278.493 160.086 278.756C160.147 279.018 160.307 279.248 160.533 279.396C167.615 283.225 175.408 285.56 183.43 286.256C190.268 286.939 197.174 286.142 203.676 283.92C215.361 279.541 226.358 273.512 236.334 266.018C239.27 266.149 399.41 273.65 399.5 273.652C400.789 273.671 400.789 271.6 399.428 271.547ZM296.179 213.25C301.087 213.7 305.076 213.995 311.094 214.26C307.784 217.491 304.533 220.783 301.346 224.136C295.98 224.122 290.601 223.951 285.233 223.674C288.91 220.24 292.559 216.766 296.179 213.25ZM99.7211 155.02C89.8688 154.314 80.1134 154.955 72.0397 159.827C71.117 157.452 70.2681 155.052 69.4538 152.627C73.9413 151.049 78.5793 149.937 83.2945 149.309C103.334 146.608 120.062 153.556 126.344 160.351C117.74 157.42 108.79 155.628 99.7211 155.02ZM242.029 199.789C241.924 199.936 241.866 200.111 241.864 200.292C241.862 200.472 241.914 200.649 242.015 200.799C226.777 201.029 210.309 215.461 198.56 225.205C195.9 227.419 197.114 226.508 196.17 226.82C195.525 224.817 194.612 222.912 193.455 221.154C178.715 195.293 157.393 172.618 129.952 161.711C129.924 161.582 129.876 161.458 129.809 161.345C122.932 151.22 105.587 146.844 93.2275 146.655C94.3067 145.661 95.0962 144.393 95.5121 142.987C95.928 141.581 95.9548 140.088 95.5897 138.667C97.0104 140.332 98.9495 141.471 101.096 141.901C103.242 142.332 105.47 142.029 107.423 141.042C109.345 139.997 111.027 138.562 112.362 136.83C113.697 135.098 114.656 133.106 115.177 130.982C115.975 128.215 116.002 125.543 113.749 123.809C129.647 123.371 135.663 105.649 128.076 93.6309C126.015 90.1955 122.84 87.5677 119.08 86.1832C118.037 82.5309 118.367 83.5016 117.257 79.9138C117.949 72.7106 125.52 70.7161 129.668 63.665C130.609 64.6311 131.206 65.2007 132.351 66.4781L132.595 2.10305C155.527 1.54505 381.117 10.4038 388.787 10.1733C390.33 35.2486 384.796 112.402 382.882 137.637C381.059 137.581 197.52 131.738 145.619 130.108C145.158 130.809 144.672 131.493 144.161 132.16C193.813 133.747 379.945 139.686 382.738 139.71C381.089 160.602 381.26 157.579 381.255 158.017C350.139 158.55 157.587 150.044 132.044 149.486C132.044 147.487 132.062 144.15 132.074 140.899C131.552 141.188 131.031 141.469 130.517 141.741C130.152 144.549 129.957 147.376 129.931 150.208C129.986 150.438 129.806 151.441 130.98 151.52C132.752 151.612 220.673 155.571 230.5 155.979L232.95 182.117C223.863 181.698 163.804 178.905 163.691 178.903C163.432 178.926 163.191 179.044 163.015 179.235C162.839 179.425 162.741 179.675 162.739 179.934C162.737 180.194 162.832 180.445 163.006 180.638C163.179 180.831 163.418 180.952 163.677 180.978C165.649 181.061 222.864 183.745 233.148 184.218L233.676 189.844C233.679 190.073 233.756 190.295 233.895 190.477C234.034 190.659 234.229 190.791 234.449 190.854C239.304 191.623 244.184 192.225 249.088 192.662C246.284 194.544 243.884 196.967 242.029 199.789ZM232.622 156.053C243.681 156.499 254.746 156.936 265.817 157.365C265.861 164.425 265.817 182.959 265.817 188.442C261.175 188.013 256.502 188.84 252.29 190.836C246.738 190.432 241.205 189.797 235.706 188.931C235.561 187.411 233.434 164.778 232.622 156.053ZM243.879 200.84C247.306 195.759 252.56 192.193 258.549 190.884C264.538 189.575 270.802 190.623 276.038 193.81C273.671 193.685 271.307 194.117 269.136 195.069C268.901 195.212 268.732 195.442 268.665 195.709C268.598 195.975 268.639 196.258 268.778 196.495C268.917 196.732 269.143 196.905 269.409 196.977C269.674 197.049 269.957 197.014 270.197 196.879C271.806 196.195 273.536 195.845 275.284 195.85C277.032 195.854 278.761 196.213 280.366 196.904C282.691 198.98 286.038 202.268 284.933 205.168C284.068 207.437 281.535 206.662 279.777 205.968C277.246 204.235 274.15 203.531 271.118 203.999C270.859 204.082 270.643 204.262 270.514 204.5C270.385 204.739 270.353 205.019 270.426 205.28C270.499 205.541 270.671 205.764 270.904 205.902C271.138 206.04 271.416 206.082 271.681 206.019C274.037 205.762 276.412 206.288 278.439 207.516C280.054 209.13 282.045 212.374 281.09 214.846C280.941 215.358 280.635 215.811 280.216 216.141C279.798 216.472 279.286 216.664 278.753 216.69C277.309 216.465 275.987 215.746 275.014 214.657C274.882 214.531 274.72 214.441 274.543 214.396C274.367 214.351 274.182 214.351 274.005 214.397C273.829 214.444 273.668 214.534 273.536 214.66C273.405 214.786 273.307 214.944 273.254 215.118C271.831 221.182 268.332 226.559 263.362 230.317C265.658 215.311 257.976 201.707 243.879 200.831V200.84Z" fill="#171717"/>
<path d="M220.102 203.871C220.404 204.062 220.563 204.035 221.624 203.949C221.903 203.949 222.17 203.839 222.366 203.642C222.563 203.445 222.674 203.178 222.674 202.9C222.674 202.622 222.563 202.355 222.366 202.158C222.17 201.962 221.903 201.851 221.624 201.851C217.952 201.669 214.277 201.471 210.602 201.288C211.324 200.58 212.021 199.845 212.755 199.151C212.939 198.952 213.039 198.689 213.034 198.418C213.029 198.147 212.919 197.888 212.727 197.696C212.535 197.504 212.276 197.394 212.005 197.389C211.733 197.384 211.471 197.484 211.271 197.668C210.944 197.996 210.602 198.323 210.275 198.653L210.261 198.678C209.421 199.492 208.609 200.331 207.781 201.157C200.761 200.802 193.746 200.444 186.736 200.082C185.385 200.016 185.385 202.114 186.736 202.181C193.086 202.508 199.437 202.832 205.788 203.151C203.328 205.642 200.905 208.168 198.52 210.731C196.734 210.626 194.954 210.517 193.179 210.403C191.828 210.325 191.841 212.423 193.179 212.501C194.333 212.566 195.486 212.647 196.656 212.711C196.577 212.803 196.485 212.882 196.407 212.974C195.502 213.97 196.972 215.453 197.89 214.454C198.374 213.917 198.886 213.405 199.385 212.868L208.556 213.419C209.908 213.497 209.894 211.399 208.556 211.321L201.274 210.887C203.696 208.314 206.157 205.777 208.656 203.278C212.427 203.479 216.268 203.675 220.102 203.871ZM328.899 358.351C328.136 313.388 308.369 283.033 263.781 285.145C250.632 285.749 230.448 288.797 217.269 293.485C209.576 296.222 201.518 300.063 196.893 306.745C194.808 309.835 193.766 313.509 193.92 317.232C194.073 320.955 195.413 324.532 197.744 327.44C198.584 328.489 200.017 327.045 199.228 325.957C192.909 317.239 194.642 305.929 211.758 297.972C223.523 292.475 240.021 289.687 252.969 288.214C265.513 286.798 278.265 286.39 290.325 290.75C315.845 299.936 325.187 326.144 326.576 353.467C327.096 363.943 326.559 374.444 324.975 384.812C324.745 386.136 326.761 386.701 326.996 385.375C328.406 376.438 329.043 367.397 328.899 358.351Z" fill="#171717"/>
<path d="M287.668 344.092C287.881 342.548 288.41 341.065 289.223 339.736C290.036 338.406 291.115 337.259 292.393 336.365C292.511 336.297 292.616 336.205 292.699 336.096C292.783 335.987 292.844 335.863 292.879 335.73C292.915 335.598 292.924 335.459 292.906 335.323C292.888 335.187 292.843 335.056 292.774 334.937C292.706 334.818 292.614 334.714 292.505 334.63C292.396 334.547 292.272 334.486 292.139 334.45C292.006 334.415 291.868 334.406 291.732 334.424C291.595 334.442 291.464 334.487 291.345 334.555C288.442 336.541 286.439 339.589 285.767 343.041L285.728 343.066C285.623 341.928 285.68 340.78 285.899 339.658C286.29 337.355 287.172 335.162 288.485 333.229C289.246 332.104 287.421 331.053 286.674 332.169C285.01 334.647 283.986 337.499 283.696 340.47C283.465 342.619 283.465 346.329 286.319 346.631C289.518 357.419 285.532 370.576 291.936 396.599C292.019 396.858 292.198 397.074 292.437 397.203C292.676 397.332 292.956 397.363 293.217 397.29C293.479 397.217 293.702 397.046 293.84 396.812C293.978 396.579 294.019 396.301 293.957 396.037C287.246 368.785 292.194 356.137 287.668 344.092ZM192.13 329.109C193.395 333.185 193.432 337.543 192.238 341.639C191.043 345.736 188.67 349.392 185.413 352.151C184.375 353.022 185.874 354.47 186.896 353.633C190.41 350.605 192.968 346.622 194.258 342.168C195.549 337.714 195.516 332.98 194.165 328.544C193.745 327.271 191.713 327.834 192.13 329.109ZM272.926 380.867C271.038 377.676 268.204 375.15 264.817 373.641C263.665 373.217 262.423 373.097 261.211 373.293C259.999 373.488 258.858 373.992 257.897 374.757C256.168 376.307 254.909 378.31 254.261 380.539C252.206 386.511 249.385 404.169 250.771 421.34C250.78 421.589 250.877 421.826 251.045 422.01C251.212 422.194 251.439 422.313 251.685 422.346C251.932 422.378 252.182 422.323 252.392 422.189C252.602 422.056 252.757 421.852 252.831 421.615C253.18 420.731 253.556 420.033 252.769 419.583C251.97 407.924 252.824 396.21 255.306 384.789C256.095 381.183 257.579 375.268 262.275 375.268C265.929 375.268 269.315 379.149 271.327 382.218C274.903 388.066 276.826 394.774 276.891 401.628C276.944 402.979 279.043 402.979 278.99 401.628C278.919 394.282 276.82 387.098 272.926 380.867ZM174.174 410.072C172.629 404.104 171.261 397.72 167.745 392.525C163.049 385.573 157.176 386.694 152.368 392.905C144.02 403.662 143.884 423.618 144.555 436.992C144.62 438.329 146.719 438.343 146.654 436.992C146.013 424.361 145.907 408.098 152.223 396.931C153.568 394.175 155.724 391.896 158.403 390.401C161.552 388.965 163.782 390.503 165.725 393.272C169.111 398.086 170.467 404.058 171.911 409.659C174.437 419.406 174.163 425.491 175.874 434.1C176.135 435.424 178.156 434.859 177.895 433.535C176.336 425.719 176.211 417.935 174.174 410.072ZM69.2825 380.754C68.2167 378.065 67.0518 375.063 64.0853 374.014C62.7001 373.627 61.2352 373.627 59.8498 374.013C58.4643 374.399 57.2111 375.157 56.2261 376.205C54.142 378.632 52.6588 381.516 51.8962 384.623C48.3484 395.691 47.8109 407.891 47.3311 419.364C47.278 420.715 49.3772 420.715 49.4303 419.364C49.8916 408.296 51.0566 375.647 62.0784 375.796C65.1349 375.836 66.2906 378.932 67.2479 381.344C72.4999 394.699 75.3888 408.864 75.7853 423.208C75.7853 423.486 75.8959 423.753 76.0927 423.95C76.2896 424.146 76.5565 424.257 76.8349 424.257C77.1133 424.257 77.3802 424.146 77.5771 423.95C77.7739 423.753 77.8845 423.486 77.8845 423.208C77.485 408.667 74.5748 394.304 69.2825 380.754Z" fill="#171717"/>
<path d="M374.27 212.397C363.219 206.741 351.678 217.009 345.918 225.798C343.726 229.144 341.304 233.338 341.509 237.473C341.816 243.698 348.76 249.188 360.194 246.311C370.829 243.664 379.657 234.152 380.335 223.44C380.633 221.193 380.205 218.911 379.114 216.925C378.023 214.938 376.326 213.352 374.27 212.397ZM355.549 218.233C358.667 215.697 364.776 211.533 368.566 212.895C368.485 213.944 367.029 214.876 366.4 215.701C366.013 216.46 365.57 217.187 365.073 217.878C363.948 218.98 361.355 219.042 360.73 221.235C358.277 220.947 355.825 220.396 353.332 220.2C353.698 220.214 355.207 218.51 355.549 218.233ZM351.101 244.685C349.37 244.46 347.743 243.729 346.427 242.583C345.11 241.438 344.162 239.928 343.701 238.245C342.778 233.237 348.118 225.766 351.442 222.105C354.523 222.267 357.585 222.674 360.6 223.324C360.78 224.044 361.146 224.703 361.663 225.235C362.18 225.768 362.828 226.154 363.542 226.355C364.256 226.556 365.011 226.565 365.729 226.381C366.448 226.196 367.105 225.825 367.634 225.305C374.953 227.899 375.922 229.455 376.921 229.278C372.769 239.898 360.732 246.615 351.101 244.685ZM378.273 222.55C378.253 224.261 377.993 225.961 377.5 227.599C377.435 227.524 377.357 227.462 377.269 227.415C374.495 225.872 371.599 224.561 368.61 223.495C368.786 222.905 368.825 222.283 368.722 221.676C368.62 221.069 368.379 220.494 368.019 219.995C367.283 219.01 366.706 219.259 367.299 218.079C368.375 216.296 369.755 214.715 371.378 213.409C376.566 215.349 378.305 218.374 378.273 222.547V222.55Z" fill="#171717"/>
<path d="M408.558 173.146C411.206 172.263 414.835 173.128 421.049 169.551C423.056 168.385 426.138 166.554 425.732 163.822C425.287 160.87 421.954 160.148 419.504 160.739C415.381 161.92 411.604 164.08 408.496 167.033C408.47 166.523 408.43 166.012 408.378 165.5C410.168 160.944 416.193 158.046 419.045 151.073C420.161 148.334 421.446 143.233 417.499 142.037C413.347 140.778 410.992 145.421 409.481 148.398C408.338 150.647 407.318 152.956 406.424 155.316C406.094 154.241 405.732 153.178 405.335 152.129C402.941 145.878 398.002 141.935 395.769 143.459C393.903 144.748 394.943 149.519 395.94 151.855C398.043 156.046 400.986 159.76 404.586 162.765C404.763 162.928 404.989 163.028 405.229 163.049C405.469 163.07 405.709 163.012 405.912 162.883C406.346 165.924 406.235 165.129 405.991 166.201C402.432 163.886 398.597 162.027 394.574 160.667C393.914 160.311 393.182 160.107 392.432 160.073C391.682 160.039 390.935 160.174 390.244 160.469C389.726 160.825 389.309 161.31 389.036 161.876C388.762 162.442 388.641 163.07 388.685 163.697C389.043 169.171 399.912 174.689 406.503 171.408C406.503 171.578 406.503 171.749 406.489 171.919C405.82 172.387 405.308 173.045 405.019 173.808C404.692 174.633 405.453 175.145 406.147 175.053C406.242 175.444 406.273 175.847 406.24 176.247C406.932 176.222 407.624 176.18 408.316 176.155C408.44 175.127 408.519 174.142 408.558 173.146Z" fill="#294E47"/>
<path d="M432.683 180.766C432.582 179.132 432.372 177.507 432.056 175.901C431.994 175.679 431.862 175.484 431.679 175.344C431.496 175.204 431.273 175.128 431.043 175.126C425.454 175.378 383.772 177.185 381.752 177.278C381.2 177.278 380.829 177.485 380.739 178.038C378.321 191.834 379.874 206.425 392.183 213.345C400.551 217.465 410.18 218.225 419.092 215.468C431.772 210.428 433.957 194.4 432.683 180.766Z" fill="#97BCB5"/>
<g clip-path="url(#clip0_9528_3660)">
<path d="M176.817 21.3498C176.331 19.7213 174.759 16.6476 173.577 16.9697C173.037 16.8389 172.403 17.0765 171.914 17.2657C171.592 17.3887 168.561 18.2622 164.848 19.3685C157.803 21.4683 154.681 22.4805 145.532 25.314C144.771 25.5494 143.494 25.93 143.297 26.9633C143.088 28.0707 143.926 27.3901 155.386 66.7675C155.366 66.8401 155.387 66.9355 155.469 67.0634C155.737 67.4839 156.138 67.9068 156.644 68.0078C157.171 68.1128 157.659 67.8744 158.153 67.7361C161.143 66.9003 178.05 62.1313 186.874 58.7518C187.153 58.6455 187.446 58.5274 187.628 58.2913C187.976 57.838 187.412 56.7885 187.27 56.3145C185.733 51.1618 191.922 71.8962 176.817 21.3498ZM144.307 27.1563C144.387 26.7347 145.361 26.4422 145.829 26.2994C159.288 22.1318 158.817 22.2009 171.835 18.3858C172.189 18.2799 173.179 17.8378 173.36 17.9727L173.373 17.9844C173.533 18.1236 185.148 56.4811 185.426 57.4094C175.652 60.3658 165.986 63.0342 156.229 65.9856C143.515 22.3174 144.139 28.038 144.307 27.1563Z" fill="#171717"/>
<path d="M147.858 34.8055C148.31 35.8355 149.07 36.253 150.229 35.9012L173.46 28.8516C174.722 28.4671 175.22 27.5817 174.902 26.2915C174.276 23.7538 173.547 22.2567 173.354 21.6849C172.835 20.1244 172.091 20.0772 170.573 20.676C170.049 20.8824 167.834 21.5284 165.279 22.2818C159.663 23.9386 152.697 26.0458 146.937 28.047C145.83 28.4317 145.975 29.5106 146.371 30.615C147.192 32.9313 147.61 34.1752 147.858 34.8055ZM147.124 29.1268C147.289 28.7817 162.596 24.1508 162.662 24.1301C166.544 22.9715 170.215 21.9247 170.949 21.6338C171.211 21.531 171.905 21.2564 172.061 21.368C172.199 21.4666 172.295 21.7557 172.381 22.0109C172.613 22.717 173.275 23.9885 173.905 26.5387C174.195 27.7167 173.388 27.7269 173.159 27.8676L149.932 34.916C149.388 35.0817 149.185 34.9599 149.046 34.8036C148.802 34.5307 148.784 34.3956 147.338 30.2674C147.224 29.9505 147.013 29.36 147.124 29.1274L147.124 29.1268ZM177.453 37.8733C177.414 37.6915 177.367 37.4655 177.158 37.3262C176.895 37.1516 176.614 37.2625 176.503 37.3083C169.24 39.5372 169.555 39.3044 169.741 39.9196L171.041 44.3865C171.079 44.5158 171.166 44.6252 171.283 44.6912C171.4 44.7571 171.539 44.7743 171.669 44.739C173.836 44.1517 175.845 43.4901 177.89 42.8053C178.347 42.6935 178.376 42.5714 178.436 42.5363C178.698 42.2557 178.617 41.9168 178.492 41.5583C178.161 40.3271 177.946 39.4866 177.453 37.8733ZM177.505 41.8454C175.684 42.4647 173.738 43.0951 171.886 43.6119L170.868 40.1148C171.291 39.9839 176.464 38.3971 176.53 38.3769C177.239 40.6835 177.395 41.5297 177.505 41.8454ZM168.783 40.509C168.745 40.3307 168.698 40.1084 168.49 39.9672C168.227 39.7915 167.948 39.9035 167.834 39.9499C160.573 42.1779 160.886 41.9449 161.073 42.5607L162.373 47.0276C162.411 47.1569 162.497 47.2662 162.614 47.3322C162.732 47.3981 162.87 47.4154 163 47.3804C165.202 46.7833 167.214 46.1192 169.223 45.4462C169.375 45.409 169.605 45.3513 169.768 45.1777C170.03 44.8933 169.949 44.5601 169.823 44.1996L169.483 42.9282C169.265 42.1275 169.034 41.3313 168.783 40.509ZM168.835 44.487C167.019 45.105 165.065 45.7376 163.217 46.2532L162.199 42.7562C162.621 42.6255 167.795 41.0384 167.861 41.0181C168.083 41.7417 168.727 44.1756 168.835 44.487ZM160.116 43.1556C160.078 42.9736 160.03 42.7478 159.821 42.6085C159.559 42.434 159.277 42.5448 159.167 42.5907C152.198 44.7255 152.273 44.6422 152.405 45.2019L153.705 49.6688C153.742 49.7982 153.829 49.9075 153.946 49.9735C154.064 50.0394 154.202 50.0566 154.332 50.0213C155.641 49.6661 156.962 49.2646 158.245 48.8507C161.561 47.7814 160.882 47.9465 161.101 47.8184C161.39 47.5079 161.252 47.1167 161.125 46.7515C160.817 45.5453 160.481 44.346 160.116 43.1556ZM160.168 47.1278C158.354 47.745 156.407 48.3756 154.549 48.8944L153.531 45.3973C153.953 45.2666 159.127 43.6794 159.193 43.6592C159.906 45.9796 160.052 46.7958 160.168 47.1278ZM165.046 54.1253C167.214 53.5386 169.218 52.8771 171.271 52.1912C171.422 52.1538 171.652 52.0954 171.814 51.9226C172.076 51.6383 171.995 51.305 171.869 50.9446C171.542 49.7223 171.321 48.8666 170.83 47.2546C170.791 47.0756 170.744 46.8533 170.537 46.7128C170.273 46.5358 169.995 46.6484 169.88 46.6948C162.573 48.9333 162.959 48.7778 163.119 49.3057L164.419 53.7726C164.457 53.9018 164.544 54.0111 164.661 54.0771C164.778 54.143 164.916 54.1604 165.046 54.1253ZM164.246 49.5011C164.57 49.4001 169.843 47.7827 169.908 47.7628C170.625 50.1028 170.774 50.9204 170.882 51.2317C169.066 51.8498 167.125 52.4784 165.264 52.9979L164.246 49.5011ZM171.68 53.0162C155.641 57.9204 156.305 57.5669 156.451 58.2016C157.778 62.8182 157.596 62.8127 157.93 63.0011C158.051 63.0677 158.192 63.0843 158.325 63.0459C163.485 61.5512 170.644 59.2938 171.572 58.9753C172.886 58.5245 174.049 58.46 173.875 57.7221C172.724 53.1241 172.903 53.1271 172.577 52.9287C172.322 52.7713 172.067 52.8904 171.68 53.0162ZM172.776 57.5441C172.711 57.5673 163.706 60.4057 158.538 61.9121L157.573 58.4083L171.935 54.0153L172.776 57.5441ZM178.489 43.4399C171.078 45.7288 171.25 45.624 171.404 46.1845L174.908 57.9235C174.945 58.048 175.028 58.1539 175.14 58.2197C175.252 58.2856 175.385 58.3065 175.511 58.2785C177.742 57.7852 179.916 57.0137 182.028 56.1923C182.535 56.1025 182.76 55.8044 182.764 55.4333C182.767 55.1633 182.639 54.7453 182.459 54.1834C182.335 53.7978 179.506 43.9082 179.302 43.6181C179.269 43.5708 178.966 43.1646 178.489 43.4399ZM181.696 55.2135C181.495 55.2805 178.593 56.4887 175.754 57.1665L172.531 46.3678C172.95 46.2344 178.472 44.5231 178.539 44.5028C178.557 44.571 181.645 55.0138 181.696 55.2135ZM156.378 56.7663C158.547 56.1793 160.557 55.5161 162.603 54.8324C163.054 54.7209 163.085 54.5993 163.147 54.5633C163.408 54.2829 163.327 53.9434 163.201 53.5857C162.873 52.3617 162.656 51.5139 162.163 49.9012C162.125 49.7192 162.077 49.4928 161.868 49.3535C161.605 49.1782 161.324 49.2897 161.213 49.3356C154.244 51.4704 154.319 51.381 154.451 51.9468L155.751 56.4137C155.789 56.5431 155.875 56.6525 155.993 56.7184C156.11 56.7843 156.248 56.8015 156.378 56.7663ZM155.577 52.1425C155.901 52.0415 161.175 50.4239 161.24 50.4039C161.948 52.7107 162.1 53.5453 162.214 53.8729C160.389 54.4933 158.452 55.1196 156.595 55.6393L155.577 52.1425ZM166.441 32.6358C165.971 32.4518 165.606 32.7388 164.045 33.218C162.765 33.6094 159.993 34.4576 159.11 34.7339C158.677 34.8695 158.442 35.3319 158.574 35.7859L159.977 40.5901C160.108 41.0386 160.567 41.3068 161.002 41.1888C163.671 40.4602 167.345 39.2201 167.28 39.24C167.462 39.1845 167.883 39.1567 168.164 38.8674C168.512 38.5022 168.401 37.9989 168.246 37.5232C167.141 33.6153 167.093 32.8883 166.441 32.6358ZM167.218 37.6758C167.252 37.8024 167.331 38.0073 167.36 38.1641C165.944 38.5475 164.078 39.2717 160.917 40.1443L159.606 35.6571C162.358 34.8022 164.395 34.2109 166.048 33.6376C166.052 33.6366 166.054 33.6367 166.054 33.6374C166.296 34.2816 167.201 37.6087 167.218 37.6758ZM175.108 29.9949C174.746 29.8541 174.456 29.9855 173.531 30.3034C172.457 30.6764 170.38 31.2784 167.779 32.0919C167.346 32.2282 167.109 32.6903 167.241 33.145L168.645 37.949C168.776 38.3975 169.236 38.6655 169.671 38.5474C173.491 37.5053 175.43 36.7079 176.09 36.5655C177.077 36.3526 177.224 35.8279 176.913 34.8781C176.123 32.1303 176.068 31.6569 175.683 30.6339C175.564 30.3159 175.365 30.0944 175.108 29.9942L175.108 29.9949ZM175.937 35.1986C175.974 35.3048 176.004 35.4131 176.028 35.523C174.611 35.9068 172.781 36.6215 169.585 37.5034L168.274 33.0162C172.277 31.7722 164.693 34.1423 174.723 30.996C175.03 31.8148 175.582 34.1111 175.937 35.1986ZM158.608 41.8828C158.938 41.8146 159.267 41.743 159.491 41.5128C159.846 41.1486 159.732 40.6374 159.577 40.1605L159.152 38.6588C158.488 36.2797 158.39 35.5184 157.772 35.2763C157.432 35.1448 150.794 37.2648 150.442 37.375C150.008 37.5107 149.773 37.9733 149.905 38.4273L151.309 43.2334C151.441 43.6809 151.901 43.9474 152.334 43.8291C155.207 43.0454 157.608 42.1961 158.608 41.8828ZM150.937 38.2985C153.088 37.6296 155.238 36.9562 157.386 36.2783C157.819 37.4319 158.237 39.3673 158.6 40.4809C158.637 40.5871 158.668 40.6954 158.692 40.8053C157.369 41.1631 155.35 41.9297 152.248 42.7857L150.937 38.2985Z" fill="#171717"/>
<path d="M176.292 51.4604C176.556 51.3313 176.85 51.269 177.141 51.2805C177.278 51.2858 177.41 51.2367 177.51 51.1439C177.61 51.0511 177.67 50.9224 177.675 50.7859C177.68 50.6494 177.631 50.5164 177.539 50.4161C177.446 50.3159 177.317 50.2566 177.181 50.2513C176.718 50.2342 176.258 50.3318 175.841 50.5355C175.781 50.5652 175.726 50.6065 175.682 50.6571C175.637 50.7078 175.603 50.7667 175.581 50.8306C175.559 50.8945 175.55 50.962 175.554 51.0295C175.558 51.0969 175.576 51.1628 175.605 51.2235C175.635 51.2842 175.676 51.3384 175.727 51.3831C175.777 51.4278 175.836 51.4622 175.9 51.4841C175.964 51.506 176.031 51.5152 176.098 51.511C176.166 51.5068 176.232 51.4901 176.292 51.4604ZM177.725 51.5618C177.181 51.5768 176.66 51.7863 176.257 52.1526C175.855 52.5203 176.231 53.1833 176.754 53.024C177.001 52.9485 177.16 52.6052 177.748 52.5905C177.881 52.5839 178.007 52.5252 178.098 52.4271C178.19 52.3289 178.239 52.199 178.236 52.0649C178.233 51.9309 178.178 51.8033 178.082 51.7093C177.987 51.6153 177.859 51.5624 177.725 51.5618ZM165.207 57.4388C165.14 57.459 162.96 58.1759 163.027 58.1562C162.897 58.1973 162.788 58.2884 162.726 58.4095C162.663 58.5306 162.65 58.6718 162.691 58.8019C162.732 58.9321 162.823 59.0406 162.944 59.1036C163.065 59.1666 163.206 59.1789 163.336 59.1378C163.401 59.1178 165.582 58.401 165.516 58.4205C165.646 58.3794 165.754 58.2883 165.817 58.1672C165.88 58.0461 165.892 57.9049 165.851 57.7747C165.81 57.6445 165.719 57.536 165.598 57.473C165.477 57.41 165.336 57.3977 165.207 57.4388Z" fill="#171717"/>
</g>
<g clip-path="url(#clip1_9528_3660)">
<path d="M286.043 102.941C285.618 99.2679 285.259 95.5907 285.004 91.9018C283.988 77.1793 284.351 62.4077 284.867 47.6729C284.932 45.823 285.003 43.9727 285.064 42.1228C285.083 41.535 284.538 40.9852 283.95 41.0064C281.626 41.0888 279.301 41.1684 276.977 41.2474C277.017 39.4228 277.067 37.598 277.13 35.7734C277.184 34.2103 277.183 32.6654 277.311 31.1062C277.326 30.9362 277.327 30.7654 277.315 30.5952C277.288 30.2475 277.184 29.8963 276.913 29.7037C276.548 29.4448 276.001 29.5612 275.585 29.5393C274.783 29.4956 273.981 29.4569 273.178 29.4229C271.639 29.3566 270.1 29.3076 268.561 29.2802C265.71 29.2294 262.858 29.2602 260.008 29.3051C257.22 29.3486 254.432 29.4208 251.645 29.5251C249.017 29.6234 246.366 29.7713 243.807 30.43C243.247 30.5745 242.824 31.3731 243.216 31.8882C244.885 34.0812 246.863 35.9647 248.857 37.8555C250.323 39.2456 251.785 40.6386 253.249 42.0305C248.756 42.1751 244.262 42.3189 239.768 42.462C235.634 42.5944 231.5 42.7269 227.367 42.8586C227.411 40.7631 227.483 38.6396 227.012 36.5828C226.545 34.5442 225.422 32.7089 223.627 31.5938C222.001 30.5839 220.002 30.2494 218.114 30.3285C214.084 30.497 209.453 32.3109 207.665 36.1868C206.659 38.368 206.565 40.7999 206.491 43.1617C206.407 45.8605 206.354 48.5601 206.33 51.2601C206.28 56.7773 206.345 62.2954 206.494 67.8107C206.661 74.0343 206.931 80.2546 207.249 86.4723C207.529 91.9354 207.648 97.4118 208.221 102.856C208.302 103.622 208.32 104.423 208.551 105.163C208.611 105.357 208.686 105.546 208.761 105.735C208.821 105.886 208.881 106.037 208.95 106.184C210.25 108.962 213.788 108.887 216.392 109.029C219.435 109.197 222.487 109.269 225.541 109.303C225.891 110.36 226.245 111.416 226.606 112.468C226.974 113.541 227.265 114.715 227.78 115.726C228.946 118.021 231.716 116.412 233.488 115.822C238.308 114.217 243.127 112.609 247.94 110.982C249.388 110.493 250.835 110 252.281 109.506C255.227 109.536 258.173 109.566 261.119 109.6C264.876 109.642 268.632 109.695 272.389 109.742L278.024 109.814C279.769 109.836 281.581 110.005 283.319 109.842C284.727 109.711 285.905 108.956 286.266 107.526C286.638 106.051 286.213 104.416 286.043 102.941ZM253.469 36.6583C252.962 36.8022 252.626 37.2201 252.293 37.6035C252.169 37.7478 252.026 37.905 251.892 38.0709C251.394 37.5987 250.89 37.1272 250.386 36.6544C250.746 36.3065 251.106 35.9594 251.457 35.6009C251.914 35.1334 251.313 34.28 250.738 34.6678C250.253 34.9956 249.848 35.3709 249.481 35.8008C248.209 34.5923 246.959 33.3549 245.833 32.0198C247.918 31.6373 250.032 31.517 252.157 31.4199C254.889 31.2961 257.623 31.2007 260.357 31.1338C263.091 31.0668 265.826 31.0447 268.561 31.004C270.816 30.9697 273.068 30.9999 275.317 30.8882C274.858 40.5309 274.684 50.1973 274.904 59.8493C274.743 59.7096 274.585 59.5632 274.426 59.4161C273.741 58.7786 273.062 58.1345 272.382 57.4917C271.914 57.0489 271.447 56.6061 270.979 56.164C271.196 56.0222 271.403 55.8637 271.605 55.7032C271.957 55.4224 272.324 55.1647 272.472 54.7206C272.618 54.2805 272.173 53.962 271.784 54.031C271.348 54.1086 271.005 54.4992 270.694 54.7909C270.499 54.9734 270.315 55.1675 270.142 55.3721C269.647 54.9026 269.151 54.4338 268.656 53.9648C269.123 53.5153 269.643 53.1717 269.954 52.559C270.177 52.1202 269.693 51.4949 269.222 51.8251C268.886 52.0614 268.64 52.3034 268.401 52.6378C268.244 52.8566 268.12 53.0953 267.973 53.3181L266.197 51.6366C266.655 51.2233 267.265 50.9524 267.44 50.3237C267.519 50.042 267.297 49.7449 267.004 49.7484C266.255 49.7578 265.88 50.4086 265.484 50.9617C264.951 50.4567 264.419 49.9525 263.886 49.4475C263.986 49.3718 264.088 49.2977 264.192 49.2227C264.526 48.9819 264.891 48.7505 264.999 48.3272C265.112 47.8897 264.722 47.5339 264.299 47.6255C263.889 47.7145 263.651 48.0697 263.408 48.3813C263.316 48.499 263.223 48.6154 263.129 48.7306C262.608 48.2368 262.087 47.7438 261.566 47.2503C261.699 47.1312 261.838 47.0186 261.982 46.913C262.277 46.6957 262.513 46.4992 262.732 46.2028C263.086 45.7246 262.407 45.122 261.941 45.4097C261.48 45.6939 261.182 46.15 260.842 46.5648C260.654 46.3862 260.466 46.2083 260.278 46.0297C260.013 45.7788 259.748 45.5273 259.483 45.2758C259.628 45.1671 259.776 45.062 259.927 44.9607C260.277 44.7241 260.618 44.5253 260.635 44.0558C260.646 43.7414 260.377 43.5449 260.095 43.5147C259.67 43.4699 259.406 43.8383 259.152 44.1181C259.014 44.2687 258.871 44.4148 258.724 44.5561L257.266 43.173C257.376 43.0846 257.49 42.9997 257.605 42.9115C257.92 42.6713 258.154 42.4406 258.368 42.1048C258.694 41.5946 258.046 40.9504 257.537 41.272C257.203 41.4835 256.968 41.7216 256.729 42.0333C256.634 42.1564 256.542 42.2781 256.447 42.3963C255.943 41.9175 255.437 41.44 254.934 40.9611C255.119 40.8256 255.3 40.683 255.474 40.5337C255.798 40.2529 256.196 39.9043 256.272 39.4635C256.321 39.1846 256.155 38.8997 255.845 38.9011C255.356 38.9031 254.947 39.2509 254.609 39.5745C254.42 39.7558 254.253 39.9551 254.094 40.1625C253.67 39.7592 253.245 39.3565 252.821 38.9519C252.971 38.8207 253.113 38.6817 253.245 38.5565C253.609 38.212 254.031 37.8502 254.151 37.3419C254.247 36.9366 253.887 36.54 253.469 36.6583ZM268.222 85.6403C268.145 85.7406 267.321 85.7252 267.184 85.7365C266.605 85.7862 266.025 85.8281 265.444 85.8629C264.225 85.9372 263.005 85.982 261.783 86.0067C260.638 86.0302 259.492 86.0375 258.346 86.0355C258.435 84.7847 258.361 83.4911 258.369 82.2545C258.38 80.6265 258.383 78.9986 258.377 77.3706C258.374 76.5612 258.41 75.7359 258.362 74.9279C258.335 74.4844 258.239 74.0564 257.845 73.7956C257.388 73.4911 256.621 73.6055 256.116 73.5942C255.326 73.5762 254.536 73.5574 253.745 73.5394C252.955 73.5213 252.165 73.5033 251.374 73.4846C250.804 73.4718 250.012 73.3153 249.48 73.5608C248.959 73.8016 248.946 74.3219 248.932 74.8322C248.91 75.6376 248.924 76.4448 248.92 77.2502C248.912 78.8621 248.885 80.4747 248.91 82.0867C248.93 83.338 248.87 84.6295 249.003 85.8824C248.475 85.8709 247.948 85.8601 247.421 85.8502C245.015 85.8053 242.61 85.754 240.205 85.699L239.324 85.679L239.149 85.675C239.088 85.6612 239.026 85.6504 238.964 85.6428C238.903 85.1559 238.959 84.5927 238.945 84.1266C238.909 82.9074 238.878 81.6881 238.853 80.4686C238.746 75.1493 238.942 69.7898 238.644 64.4785C238.942 64.2885 239.242 64.1025 239.539 63.9113C243.065 61.6464 246.53 59.2877 249.931 56.8376C250.747 56.2496 251.559 55.6556 252.368 55.0577C253.144 54.4846 254.093 53.6384 255.123 53.6865C256.037 53.73 256.894 54.5447 257.599 55.057C258.427 55.6588 259.247 56.2719 260.059 56.8963C263.055 59.2027 265.929 61.668 268.676 64.2671C268.999 68.8045 269.213 73.2966 268.969 77.8514C268.839 80.2821 268.565 82.6885 268.272 85.1025C268.303 84.8477 268.2 85.6697 268.222 85.6403ZM256.924 86.0267C254.632 86.0074 252.339 85.9552 250.048 85.9052C250.283 84.2063 250.207 82.3976 250.227 80.7047C250.238 79.7256 250.249 78.7471 250.261 77.7685C250.271 76.8374 250.137 75.7426 250.265 74.7921C250.524 74.7887 250.883 74.8457 251.035 74.849L252.051 74.8729C252.841 74.8918 253.632 74.9106 254.423 74.9286C255.198 74.9474 256.021 75.051 256.794 74.9847C256.875 74.9962 256.938 75.0036 256.99 75.0082C256.991 75.2142 256.993 75.4202 256.995 75.6255C256.997 76.033 256.999 76.4402 257.001 76.8468C257.008 78.4748 257.006 80.1035 256.996 81.7314C256.988 83.1281 256.846 84.6122 256.924 86.0267H256.924ZM267.015 60.8379C265.238 59.267 263.413 57.7525 261.541 56.2965C260.729 55.664 259.909 55.0419 259.081 54.4303C258.181 53.7677 257.256 52.9549 256.21 52.5374C254.168 51.7222 252.4 53.3367 250.865 54.4672C246.949 57.3494 242.945 60.1102 238.859 62.7456C237.873 63.381 236.882 64.0095 235.887 64.6309C235.673 64.7648 234.698 65.5466 234.462 65.5139C234.185 65.4751 234.141 65.2049 233.997 64.9347C233.917 64.784 233.507 64.1916 233.512 64.0243C233.526 63.5442 234.466 63.1508 234.822 62.9087L236.569 61.7215C238.773 60.2239 241.018 58.7644 243.229 57.2643C243.996 56.7446 244.762 56.2243 245.528 55.7044C246.203 55.2464 246.878 54.7882 247.553 54.3307C248.749 53.5194 249.945 52.7082 251.141 51.896C252.179 51.1911 253.087 50.3531 254.118 49.6675C254.473 49.4312 254.627 49.2521 255.067 49.4381C255.437 49.5946 255.791 49.8922 256.128 50.1096C257.547 51.0226 258.947 51.965 260.332 52.928C263.102 54.8563 265.812 56.8703 268.499 58.9137C269.844 59.9354 271.183 60.963 272.518 61.9964C272.771 62.1923 273.056 62.3817 273.282 62.6117C273.748 63.0873 273.562 63.2632 273.188 63.752C272.924 64.0986 272.612 64.4183 272.326 64.748C272.17 64.9294 272.001 65.1901 271.807 65.3855C271.446 65.1266 271.061 64.5962 270.811 64.3534C269.573 63.1527 268.307 61.9806 267.015 60.8379ZM239.962 50.5423C240.687 50.5029 241.411 50.4761 242.137 50.4781C242.906 50.4809 243.855 50.4005 244.662 50.5336V50.5483C244.654 50.8279 244.658 51.1096 244.656 51.3897C244.651 51.8948 244.644 52.3998 244.637 52.9047C244.628 53.5013 244.587 54.1119 244.619 54.7127C243.761 55.2989 242.901 55.8823 242.039 56.463C241.314 56.9499 240.59 57.4383 239.866 57.9257C240.195 55.4878 240.165 52.9968 239.962 50.5423ZM213.552 100.973C214.267 100.548 215.028 100.198 215.807 99.9229C217.06 99.4801 218.359 99.1998 219.674 99.0412C219.621 99.5201 219.695 100.037 219.719 100.503C219.741 100.922 219.772 101.341 219.829 101.755C217.961 100.568 215.502 100.575 213.643 101.897C213.657 101.58 213.641 101.265 213.552 100.973ZM216.455 102.488C217.213 102.402 217.989 102.497 218.706 102.755C219.059 102.883 219.365 103.071 219.695 103.243C220.017 103.41 220.878 103.402 220.982 102.963C221.173 102.155 221.23 101.331 221.268 100.503C221.291 99.985 221.387 99.4205 221.308 98.9034C221.988 98.8709 222.67 98.864 223.349 98.8815C224.505 98.9108 226.153 98.9517 226.805 100.107C227.497 101.332 225.877 102.459 225.01 103.035C222.811 104.495 220.186 105.247 217.55 105.185C216.582 105.162 214.745 105.167 214.123 104.235C213.475 103.265 215.79 102.564 216.455 102.488ZM209.583 102.341C209.525 97.9897 209.173 93.6283 208.977 89.2881C208.738 84.0088 208.53 78.7282 208.386 73.4451C208.103 63.0452 207.992 52.609 208.491 42.2139C208.598 39.9866 208.807 37.5124 210.267 35.7106C211.535 34.1456 213.446 33.2573 215.349 32.7409C218.966 31.7591 223.593 32.2084 224.92 36.3267C225.55 38.2824 225.473 40.3813 225.433 42.4098C225.274 50.2273 225.265 58.0471 225.404 65.8649C225.509 71.6994 225.697 77.5324 225.968 83.3608C226.191 88.1498 226.337 92.9733 226.899 97.7397C225.062 96.7004 222.364 96.9504 220.434 97.129C217.557 97.3946 214.65 98.1437 212.235 99.791C211.314 100.42 210.292 101.31 209.583 102.341ZM233.296 113.822C232.749 114.004 232.201 114.187 231.653 114.369C231.195 114.522 230.334 114.989 229.86 114.963C229.388 114.936 229.331 114.33 229.182 113.898C228.975 113.301 228.77 112.704 228.567 112.105C228.235 111.126 227.909 110.146 227.587 109.164C228.728 108.679 229.87 108.2 231.015 107.726C231.066 107.875 231.125 108.025 231.178 108.174C231.362 108.71 231.548 109.277 231.895 109.73C232.272 110.222 232.96 109.933 232.873 109.317C232.793 108.753 232.518 108.221 232.267 107.714C232.198 107.575 232.134 107.431 232.064 107.292C232.622 107.061 233.182 106.833 233.742 106.605C234.018 107.404 234.118 108.283 234.677 108.943C234.895 109.2 235.318 109.045 235.402 108.751C235.674 107.8 235.166 106.985 234.608 106.253C235.334 105.96 236.062 105.672 236.79 105.381C237.048 106.273 237.151 107.332 237.933 107.861C238.184 108.031 238.547 107.859 238.62 107.581C238.858 106.667 238.19 105.809 237.651 105.038C238.362 104.755 239.075 104.478 239.787 104.199C240.141 105.169 240.179 106.289 240.928 107.064C241.138 107.281 241.565 107.191 241.629 106.879C241.866 105.728 241.156 104.809 240.571 103.891C241.458 103.546 242.345 103.203 243.233 102.862C243.447 103.828 243.723 105.007 244.589 105.475C244.658 105.513 244.735 105.533 244.813 105.533C244.892 105.532 244.969 105.511 245.036 105.472C245.104 105.433 245.161 105.377 245.201 105.31C245.241 105.242 245.263 105.166 245.264 105.087C245.284 104.529 244.996 104.054 244.738 103.576C244.547 103.223 244.341 102.869 244.154 102.509C244.95 102.205 245.748 101.903 246.545 101.602C246.681 102.296 246.837 103.05 247.369 103.474C247.72 103.755 248.298 103.599 248.298 103.088C248.298 102.418 247.882 101.822 247.568 101.218C248.148 101 248.73 100.788 249.31 100.572C249.455 100.93 249.578 101.297 249.703 101.663C249.859 102.123 249.975 102.647 250.367 102.965C250.628 103.177 251.063 103.131 251.156 102.755C251.362 101.923 250.774 100.99 250.27 100.216C251.12 99.9015 251.972 99.591 252.823 99.2792C252.963 100.111 252.951 101.168 253.694 101.622C253.9 101.75 254.211 101.675 254.326 101.457C254.57 100.993 254.446 100.55 254.265 100.083C254.178 99.8599 254.091 99.6352 253.995 99.4152C253.923 99.252 253.825 99.0994 253.734 98.945C254.526 98.656 255.319 98.3697 256.112 98.0834C256.112 98.1952 256.107 98.3077 256.12 98.4005C256.151 98.6166 256.196 98.8313 256.234 99.0465C256.314 99.4941 256.399 99.9349 256.624 100.334C256.868 100.766 257.598 100.588 257.576 100.075C257.546 99.3869 257.229 98.6721 256.939 98.0541C256.904 97.9798 256.862 97.9029 256.815 97.8286C257.853 97.4553 258.893 97.0869 259.932 96.717C260.057 97.6005 260.092 98.5731 260.653 99.25C260.882 99.5268 261.431 99.3885 261.491 99.0286C261.639 98.1324 261.153 97.2514 260.814 96.4026C261.636 96.1116 262.458 95.8215 263.28 95.5325C263.38 96.4367 263.472 97.4915 264.27 97.8634C264.528 97.9832 264.778 97.8822 264.879 97.6146C265.171 96.836 264.577 95.9948 264.152 95.2268C264.871 94.9746 265.591 94.7234 266.311 94.4731C266.649 94.3553 266.985 94.2349 267.322 94.1159C267.441 94.8837 267.546 95.645 268.041 96.2843C268.275 96.5859 268.796 96.3283 268.782 95.9766C268.751 95.2147 268.38 94.5418 268.094 93.8437C268.824 93.5827 269.552 93.318 270.278 93.0477C270.444 93.835 270.574 94.6503 271.079 95.2717C271.298 95.5412 271.828 95.402 271.885 95.0582C272.024 94.2295 271.66 93.4564 271.258 92.7266C271.401 92.6824 271.544 92.6371 271.688 92.5936C272.234 92.4277 272.782 92.2658 273.329 92.102C273.361 92.328 273.386 92.5561 273.423 92.7749C273.498 93.2081 273.643 93.5795 273.814 93.9808C274.039 94.5099 274.848 94.2122 274.847 93.7005C274.846 93.2557 274.803 92.8571 274.643 92.4384C274.559 92.217 274.451 92.0076 274.343 91.7989C274.451 91.7669 274.559 91.734 274.667 91.702C275.398 91.4859 276.144 91.334 276.881 91.1501C277.768 92.7086 278.44 94.3661 278.857 96.1211C278.964 96.5692 279.079 97.0247 279.15 97.479C279.174 97.6334 279.12 97.7872 279.158 97.7932C279.034 97.8587 278.859 97.8969 278.749 97.9416C277.679 98.3731 276.589 98.763 275.508 99.169C271.239 100.774 266.949 102.322 262.646 103.838C254.097 106.85 245.508 109.746 236.911 112.617C235.706 113.018 234.501 113.42 233.296 113.822ZM283.743 107.554C283.272 107.815 282.589 107.718 282.074 107.716C281.252 107.715 280.431 107.712 279.609 107.709L274.678 107.694C269.031 107.677 263.384 107.655 257.736 107.629C264.074 105.433 270.397 103.189 276.695 100.881C277.345 100.643 277.995 100.404 278.645 100.164C279.246 99.941 279.945 99.7703 280.468 99.3857C281.449 98.6661 281.29 97.5142 281.115 96.4574C280.697 93.9387 279.669 91.4919 278.331 89.331C278.083 88.929 277.57 88.6874 277.103 88.83C276.112 89.1322 275.156 89.5649 274.168 89.8887C273.237 90.1944 272.307 90.5034 271.378 90.8157C269.41 91.4772 267.443 92.1402 265.481 92.8196C263.573 93.4812 261.684 94.1974 259.794 94.9111C259.404 95.0584 259.016 95.2054 258.629 95.3539C258.02 95.5655 257.411 95.7766 256.802 95.9874C250.117 98.2962 243.458 100.686 236.867 103.254C233.347 104.625 229.844 106.04 226.372 107.53C223.099 107.528 219.827 107.498 216.563 107.358C214.929 107.288 210.394 107.516 210.302 104.985C210.279 104.361 210.539 103.775 210.89 103.274C211.179 102.86 211.724 102.12 212.204 101.961C212.321 102.531 212.313 103.155 212.36 103.735C212.374 103.914 212.389 104.094 212.423 104.27C212.727 105.826 214.404 106.445 215.791 106.653C218.72 107.091 221.72 106.611 224.381 105.311C226.35 104.349 229.333 102.402 228.649 99.9162C228.663 94.7433 228.185 89.5771 227.938 84.4102C227.415 73.4521 227.186 62.4819 227.253 51.5115C227.266 49.3318 227.294 47.1512 227.331 44.9715L255.416 44.0906C255.434 44.108 255.452 44.1248 255.47 44.1421C259.834 48.295 264.203 52.4431 268.572 56.5907C269.627 57.592 270.684 58.5927 271.736 59.5966C271.258 59.2267 270.779 58.8562 270.299 58.4875C268.603 57.184 266.9 55.8899 265.18 54.6183C263.325 53.2472 261.45 51.9034 259.545 50.604C258.569 49.9387 257.584 49.2863 256.591 48.6469C255.827 48.1553 255.099 47.6342 254.162 47.9493C253.171 48.2837 252.253 49.2842 251.439 49.9122C250.686 50.4942 249.934 51.076 249.181 51.6573C248.122 52.3436 247.074 53.0472 246.029 53.7555C246.034 53.2405 246.015 52.7254 246.02 52.2311C246.027 51.5222 246.324 50.1444 245.818 49.5538C245.273 48.9169 243.751 49.1472 243.005 49.1283C241.732 49.097 240.457 49.0984 239.184 49.1486C238.82 49.1626 238.433 49.4675 238.466 49.8682C238.703 52.7703 238.733 55.6784 238.893 58.5805C238.141 59.0862 237.389 59.5921 236.638 60.0982C235.812 60.6554 234.985 61.2126 234.158 61.7696C233.514 62.2038 232.496 62.6505 232.194 63.427C231.899 64.1842 232.512 64.9708 232.849 65.6067C233.214 66.2985 233.567 67.0803 234.487 66.9406C235.303 66.8168 236.164 66.0416 236.848 65.6148C237.131 65.4384 237.412 65.2569 237.694 65.0797C237.223 70.0521 237.357 75.1387 237.434 80.1201C237.454 81.3394 237.478 82.5589 237.51 83.7775C237.531 84.6343 237.212 86.3224 238.05 86.9049C238.414 87.1584 238.909 87.1084 239.324 87.1144L241.261 87.1445C242.668 87.1666 244.076 87.1887 245.485 87.2161C250.74 87.3205 256.003 87.513 261.26 87.4368C262.539 87.4179 263.818 87.3792 265.096 87.309C266.228 87.2462 267.497 87.2883 268.602 87.018C269.608 86.7719 269.62 85.7499 269.739 84.8972C269.922 83.5824 270.077 82.2637 270.204 80.9422C270.672 75.996 270.787 70.9087 270.307 65.9353C270.621 66.2677 270.951 66.576 271.302 66.764C272.051 67.1639 272.542 66.6596 273.006 66.1259C273.93 65.0617 275.677 63.7234 274.773 62.1891C275.061 62.3502 275.363 62.4887 275.689 62.593C276.307 62.7916 276.974 62.2559 276.963 61.6204C276.851 55.558 276.833 49.4929 276.936 43.4305C278.888 43.3764 280.839 43.3235 282.791 43.2699C282.299 55.6611 281.918 68.0782 282.242 80.4773C282.407 86.8281 282.77 93.1761 283.428 99.4953C283.595 101.105 283.785 102.713 283.999 104.317C284.105 105.111 284.66 107.046 283.743 107.554Z" fill="black"/>
<path d="M251.869 79.7064C251.46 79.8221 251.17 80.2081 251.171 80.6334C251.172 80.8175 251.228 80.9933 251.322 81.1498C251.456 81.374 251.658 81.4976 251.896 81.5873L251.707 81.5077C251.784 81.5445 251.864 81.5758 251.943 81.6087C252.084 81.6469 252.233 81.6469 252.373 81.6087C252.508 81.5711 252.631 81.4992 252.73 81.4C252.759 81.376 252.785 81.3498 252.809 81.3217C252.93 81.2114 253.019 81.0701 253.065 80.913C253.165 80.5726 253.079 80.1934 252.826 79.9412C252.577 79.693 252.203 79.6122 251.869 79.7066V79.7064ZM259.885 61.9792C258.728 61.9124 257.578 61.8722 256.432 61.8708L256.018 61.8428C253.887 61.6955 251.742 61.6842 249.607 61.7143C248.624 61.7284 247.573 61.6623 246.6 61.8059C245.944 61.9035 245.771 62.2849 245.714 62.9138C245.519 65.0238 245.684 67.2444 245.875 69.3486C245.909 69.7219 246.154 69.9988 246.541 70.0169C249.78 70.1679 253.023 70.2731 256.265 70.2963C257.873 70.3078 259.522 70.3693 261.126 70.2436C262.471 70.1385 262.368 68.6911 262.469 67.6391C262.609 66.1768 262.756 64.5156 262.502 63.0581C262.284 61.8027 260.876 62.0374 259.885 61.9794L259.885 61.9792ZM247.144 68.6992C247.074 67.9911 247.022 67.2814 246.988 66.5708C248.055 66.7823 249.213 66.7575 250.278 66.8076C250.441 66.815 250.605 66.821 250.767 66.8283C250.784 67.1107 250.803 67.3922 250.822 67.6732C250.847 68.0598 250.841 68.449 250.9 68.8236C249.648 68.7834 248.395 68.7387 247.144 68.6992ZM250.735 65.7161C250.735 65.7322 250.735 65.7476 250.735 65.7637C250.583 65.7582 250.431 65.7536 250.279 65.7476C249.194 65.7041 248.045 65.5655 246.949 65.6666C246.906 64.8466 246.823 63.8802 246.965 63.0782C247.095 63.0722 247.225 63.0655 247.354 63.0602C247.701 63.0454 248.047 63.0321 248.394 63.0208C248.971 63.002 249.549 62.9879 250.127 62.9785C250.448 62.9739 250.769 62.9751 251.091 62.9739C250.753 63.8125 250.744 64.8794 250.735 65.7161H250.735ZM255.781 68.9313C255.364 68.9265 254.946 68.9245 254.528 68.9173C253.691 68.9039 252.853 68.8818 252.015 68.857C252.038 68.4683 251.97 68.0711 251.941 67.6732C251.922 67.4078 251.905 67.1423 251.889 66.8766C252.673 66.9086 253.457 66.9374 254.241 66.9616C254.76 66.977 255.279 66.9896 255.798 67.0016C255.766 67.6471 255.75 68.2927 255.781 68.9313ZM255.908 65.2238C255.894 65.4499 255.879 65.676 255.864 65.902C255.323 65.8934 254.782 65.884 254.241 65.8719C253.439 65.8532 252.638 65.8291 251.835 65.8024C251.806 64.8868 251.975 63.8887 251.92 62.9691C252.651 62.9704 253.382 62.9785 254.113 62.9965C254.773 63.0126 255.438 63.0434 256.105 63.0782C255.917 63.7792 255.942 64.6774 255.908 65.2238ZM261.082 67.805C261.052 68.1266 261.074 68.5801 260.969 68.8865C260.848 68.8904 260.727 68.8945 260.606 68.8971C259.392 68.9304 258.178 68.9443 256.964 68.9387C257.011 68.304 257.024 67.6651 257.032 67.0258C257.423 67.0324 257.814 67.0412 258.206 67.0446C259.166 67.0545 260.162 67.1199 261.136 67.0766C261.12 67.3194 261.104 67.5629 261.082 67.805ZM261.188 65.9267C260.198 65.8821 259.188 65.9434 258.206 65.9342C257.82 65.9301 257.434 65.9241 257.048 65.9195C257.053 65.6873 257.059 65.4553 257.068 65.2238C257.092 64.6539 257.232 63.8232 257.142 63.1317C257.894 63.1704 258.647 63.2059 259.397 63.2199C259.732 63.2542 260.067 63.2901 260.402 63.3304C260.453 63.3364 260.891 63.3852 261.12 63.3805C261.125 63.4126 261.13 63.4454 261.136 63.4834C261.146 63.6494 261.156 63.816 261.164 63.9817C261.194 64.63 261.203 65.2786 261.188 65.9267ZM259.996 38.9761C261.016 39.8731 262.057 40.7452 263.099 41.6174C264.154 42.5025 265.211 43.3861 266.269 44.268C267.227 45.0667 268.163 45.9703 269.252 46.5871C269.684 46.8311 270.167 46.6658 270.439 46.2754C270.816 45.7309 270.797 45.0753 270.831 44.4359C270.874 43.6219 270.902 42.8079 270.916 41.9932C270.942 40.3637 270.908 38.7337 270.814 37.1066C270.782 36.5709 270.849 35.8399 270.529 35.375C270.157 34.8353 269.489 34.8848 268.9 34.8901C267.86 34.9009 266.623 34.7959 265.517 34.9456C265.126 34.943 264.735 34.9403 264.344 34.9357C262.388 34.9122 260.418 34.9134 258.471 35.1223C257.81 35.1932 257.399 35.8038 257.722 36.4305C258.255 37.4664 259.135 38.2189 259.996 38.9761H259.996ZM269.169 44.4541C268.846 44.2113 268.533 43.9517 268.223 43.6896C268.536 43.6795 268.848 43.6701 269.161 43.6601C269.17 43.9156 269.18 44.1904 269.169 44.4541ZM264.344 36.6191C265.579 36.577 266.809 36.5328 268.042 36.4652C268.307 36.4505 268.573 36.4364 268.835 36.4726C268.897 36.4813 268.964 36.4954 269.001 36.5448C269.032 36.5856 269.035 36.6399 269.038 36.6907C269.097 37.9922 269.163 39.2925 269.174 40.596C269.176 40.9005 269.175 41.2054 269.173 41.5097C268.028 41.5479 266.883 41.5861 265.738 41.6234C265.254 41.2248 264.77 40.8268 264.286 40.4269C263.362 39.6632 262.429 38.9072 261.526 38.1187C261.026 37.6819 260.504 37.2357 260.051 36.737C261.48 36.6613 262.912 36.6673 264.344 36.6191Z" fill="black"/>
</g>
<g clip-path="url(#clip2_9528_3660)">
<path d="M372.803 59.6907C373.53 55.8149 373.803 53.7949 373.924 52.7371C374.037 51.6792 373.947 51.5795 373.834 51.5562C373.722 51.5331 373.598 51.5872 373.29 52.6088C373.195 52.9208 373.108 53.235 373.028 53.5511C372.772 53.4602 372.514 53.3772 372.254 53.3021C369.687 52.5443 365.65 51.644 363.06 51.0789L361.913 50.8442L361.338 50.7324L361.193 50.7057C361.106 50.688 361.017 50.6753 360.927 50.6677C360.748 50.6551 360.572 50.6813 360.414 50.7572C360.15 50.8839 359.974 51.1376 359.883 51.4269L359.731 51.915C359.632 52.2 359.524 52.4868 359.413 52.7793C359.194 53.3638 358.973 53.9544 358.834 54.5868C358.763 54.9014 358.727 55.2377 358.726 55.5841C358.755 55.939 358.81 56.3234 359.032 56.6629C359.125 56.8421 359.263 56.9774 359.405 57.1058C359.54 57.2515 359.7 57.3072 359.847 57.4013C360 57.4986 360.143 57.515 360.289 57.5709L360.5 57.6352L360.667 57.6751C363.412 58.3413 365.482 59.0119 367.056 59.4493C368.63 59.9022 369.706 60.1803 370.444 60.3346C370.868 60.422 371.177 60.471 371.405 60.4938C369.978 66.4724 366.234 76.7342 366.204 76.8027C366.004 77.2698 365.781 77.7348 365.512 78.1356C365.446 78.2382 365.372 78.3244 365.304 78.4212C365.233 78.5127 365.156 78.5832 365.084 78.6682C364.997 78.7484 364.86 78.819 364.663 78.8807C364.254 78.9895 363.714 79.0105 363.161 78.9759C359.968 78.7788 358.612 77.8349 344.639 74.3223L339.661 73.0734C336.004 72.1553 322.382 68.4426 321.016 67.9636C318.356 67.0299 316.993 65.8202 317.653 63.059L317.755 62.5996L317.888 62.1056C319.664 55.4921 321.345 49.2015 323.109 42.5928C323.12 42.5508 323.131 42.509 323.142 42.4675C324.148 42.9265 327.055 43.9723 330.538 45.0563C334.894 46.4264 340.149 47.8115 343.518 48.5689C349.665 49.9537 352.852 50.4224 354.483 50.6161C356.117 50.7923 356.208 50.6497 356.237 50.4798C356.266 50.3099 356.228 50.144 354.639 49.7463C353.054 49.3305 349.91 48.7276 343.794 47.3496C340.442 46.5962 335.182 45.3543 330.779 44.2062C327.251 43.2973 324.272 42.4754 323.195 42.271C323.353 41.6801 323.513 41.089 323.658 40.474C323.745 40.1081 323.82 39.7395 323.884 39.3688C323.949 38.9964 323.989 38.6016 324.028 38.2634C324.181 36.9775 324.534 36.3293 326.16 36.5326C326.481 36.5691 326.829 36.6351 327.183 36.6958C327.534 36.7603 332.288 37.5641 338.517 38.8164C345.049 40.1271 351.753 41.6395 358.379 43.2954C358.43 43.3966 358.506 43.4271 358.583 43.4445C358.668 43.4645 358.747 43.4764 358.843 43.4117L360.035 43.7119C363.469 44.5794 371.415 46.4578 373.14 48.6927C373.741 49.4515 373.828 50.2488 373.841 50.7549C373.855 51.0147 373.828 51.2124 373.823 51.3471C373.817 51.4819 373.82 51.5534 373.834 51.5562C373.848 51.5594 373.873 51.4935 373.907 51.3609C373.941 51.2283 373.997 51.0303 374.011 50.7604C374.054 50.24 374.025 49.3643 373.409 48.4933C371.664 45.9615 363.737 43.9126 360.238 42.9441C359.939 42.8611 359.63 42.7765 359.324 42.6926C359.41 42.5171 359.507 42.3047 359.618 42.044C359.774 41.6772 359.96 41.2149 360.157 40.6163C361.116 37.6314 360.973 35.0015 358.165 33.4494C357.505 33.0785 356.781 32.8116 356.027 32.576C352.524 31.554 351.508 31.2452 350.143 30.9064C349.572 30.7633 348.997 30.6357 348.42 30.5238C347.837 30.414 347.252 30.3161 346.665 30.2301C342.865 29.6951 340.486 31.0859 340.067 35.631C339.945 36.9674 340.132 37.8235 340.243 37.9867C339.749 37.8783 339.255 37.77 338.757 37.6629C338.226 37.549 337.695 37.4361 337.165 37.3243C337.266 37.1427 337.376 36.8994 337.486 36.5745C337.563 36.3478 337.639 36.0893 337.723 35.7973L337.854 35.3288C337.876 35.2433 337.911 35.1363 337.936 34.9317C337.96 34.7445 337.95 34.5545 337.906 34.371C337.821 34.0456 337.629 33.7582 337.361 33.5551C337.038 33.3134 336.822 33.2466 336.583 33.1605C336.341 33.0831 336.172 33.0402 335.956 32.9779L335.304 32.7965C334.412 32.5556 333.515 32.332 332.615 32.1257C332.113 32.0167 331.592 31.8705 330.969 31.8101C330.366 31.7411 329.626 31.8599 329.094 32.188C328.009 32.8445 327.602 33.939 327.592 34.6772C327.586 35.0095 327.643 35.2651 327.715 35.4492L327.414 35.3932C327.065 35.3295 326.712 35.2566 326.322 35.2072C324.058 34.9189 322.957 35.879 322.66 38.0918C322.612 38.4696 322.576 38.7929 322.514 39.1317C322.454 39.4683 322.38 39.8062 322.296 40.1464C322.132 40.8139 322.351 39.986 318.299 54.6574C317.304 58.2653 317.155 58.8046 316.359 61.6988L316.223 62.192C316.294 62.4397 314.511 66.3305 318.585 68.666C319.211 69.0279 319.847 69.2709 320.472 69.5024C321.588 69.8977 321.37 69.8446 336.63 74.0301L339.246 74.685L344.239 75.9307C359.664 79.7731 359.624 80.3624 363.07 80.5521C363.72 80.582 364.381 80.5785 365.096 80.3846C365.452 80.2755 365.849 80.0977 366.174 79.7792C366.408 79.5368 366.619 79.2727 366.803 78.9904C367.151 78.4568 367.396 77.9239 367.615 77.4023C367.631 77.3642 371.393 66.9992 372.803 59.6907ZM340.705 35.7387C341.672 31.6464 343.355 30.9811 346.44 31.5933C346.983 31.7 347.57 31.8309 348.114 31.9567C350.188 32.4489 351.721 33.0336 355.536 34.1682C359.144 35.253 359.592 36.7585 358.828 40.2474L358.498 41.6863C358.434 41.9812 358.389 42.2258 358.36 42.4288C352.61 40.8643 346.504 39.3608 340.3 37.9993C340.407 37.896 340.403 37.0265 340.705 35.7388L340.705 35.7387ZM328.231 34.7784C328.34 34.4627 328.505 34.1693 328.718 33.9124C328.962 33.6169 329.274 33.3856 329.628 33.2384C329.99 33.1005 330.34 33.0881 330.783 33.1794C331.21 33.2676 331.709 33.4514 332.21 33.6071C333.198 33.9221 334.133 34.203 334.864 34.4041L336.085 34.7335C336.219 34.7682 336.361 34.8431 336.324 34.8195C336.331 34.8182 336.336 34.8205 336.344 34.8246C336.347 34.8272 336.351 34.8307 336.354 34.8357C336.361 34.8185 336.352 34.8893 336.335 34.9754L336.25 35.4748C336.202 35.7861 336.17 36.0483 336.145 36.2676C336.105 36.6326 336.082 36.8938 336.08 37.0972C332.859 36.4267 330.926 36.0554 328.074 35.5161C328.098 35.3363 328.127 35.0802 328.231 34.7784ZM370.689 59.4851C369.99 59.2251 368.948 58.8614 367.394 58.349C365.831 57.8492 363.783 57.1462 360.949 56.4575L360.776 56.4169L360.647 56.3746C360.571 56.3415 360.46 56.3346 360.406 56.2859C360.265 56.2098 360.149 56.135 360.088 56.0144C360.004 55.9123 359.979 55.7342 359.953 55.5377C359.952 55.3003 359.975 55.0635 360.022 54.8309C360.123 54.3185 360.311 53.7624 360.514 53.1792C360.615 52.8884 360.721 52.5845 360.82 52.2682L360.939 51.8426C360.941 51.8275 360.945 51.8087 360.96 51.799C360.969 51.7934 360.979 51.7906 360.99 51.7908L361.01 51.7917L361.153 51.8135L361.725 51.9027L362.87 52.0906C368.546 53.0576 370.565 53.4272 372.181 53.6458C372.446 53.6836 372.713 53.7139 372.98 53.7366C372.683 54.9139 372.275 56.7127 371.652 59.4458L371.56 59.8392C371.275 59.7096 370.984 59.5915 370.689 59.4851Z" fill="black"/>
<path d="M354.553 64.538C356.114 60.1897 355.276 54.9866 350.408 52.7725C348.508 51.9224 346.327 51.5337 344.127 51.7268C339.669 52.0809 336.054 55.7967 335.181 59.9779C333.885 65.9109 338.09 70.5127 344.124 71.4871C347.37 72.0284 351 71.1747 353.009 68.468C353.46 67.8536 353.715 67.3405 353.883 66.945C354.049 66.5479 354.129 66.265 354.163 66.0646C354.23 65.6645 354.134 65.5979 354.03 65.5543C353.922 65.5096 353.813 65.499 353.572 65.7994C353.452 65.9491 353.294 66.1742 353.069 66.4958C352.842 66.8153 352.545 67.2337 352.102 67.7187C350.128 69.845 347.144 70.4335 344.38 69.9163C339.379 69.0121 335.722 65.4914 336.774 60.3196C336.794 60.2163 336.809 60.1114 336.833 60.0082C336.849 59.9681 338.29 53.7408 344.27 53.1014C346.205 52.8698 348.224 53.1595 349.941 53.8537C357.031 56.7544 353.799 65.4815 354.03 65.5543C354.072 65.5728 354.299 65.2293 354.553 64.538Z" fill="black"/>
</g>
<defs>
<clipPath id="clip0_9528_3660">
<rect width="47.942" height="48.0283" fill="white" transform="matrix(0.956582 -0.291463 0.290311 0.956932 135.611 26.4145)"/>
</clipPath>
<clipPath id="clip1_9528_3660">
<rect width="87.4781" height="87.6676" fill="white" transform="translate(206.313 29.2544)"/>
</clipPath>
<clipPath id="clip2_9528_3660">
<rect width="55.1307" height="55.2351" fill="white" transform="matrix(0.968098 0.250573 -0.249559 0.96836 326.749 19.647)"/>
</clipPath>
</defs>
</svg>
